<?xml version="1.0" standalone="no"?><!DOCTYPE svg PUBLIC "-//W3C//DTD SVG 1.1//EN" "http://www.w3.org/Graphics/SVG/1.1/DTD/svg11.dtd"><svg t="1596871390533" class="icon" viewBox="0 0 1024 1024" version="1.1" xmlns="http://www.w3.org/2000/svg" p-id="7884" xmlns:xlink="http://www.w3.org/1999/xlink" width="16" height="16"><defs><style type="text/css"></style></defs><path d="M0 952.832V551.789714c0-39.277714 31.817143-71.168 71.168-71.168H318.902857V1024H71.168A71.168 71.168 0 0 1 0 952.832z m105.106286-248.32h150.235428c9.874286 0 16.822857-17.846857 16.822857-43.373714 0-25.6-6.948571-43.446857-16.822857-43.446857H105.179429c-9.874286 0-16.676571 17.92-16.676572 43.446857 0 25.6 6.802286 43.373714 16.676572 43.373714zM318.171429 1024V71.168c0-39.277714 31.963429-71.168 71.168-71.168h563.565714c39.277714 0 71.168 31.817143 71.168 71.168v881.590857a71.168 71.168 0 0 1-71.168 71.168L318.098286 1024z m534.674285-774.290286c22.674286 0 42.422857-18.797714 42.422857-40.301714V206.262857c0-23.04-18.285714-43.373714-39.277714-43.373714H489.325714c-22.674286 0-42.422857 18.797714-42.422857 40.228571v3.218286c0 23.04 18.432 43.373714 39.424 43.373714h366.445714zM489.325714 468.041143h363.52c25.088 0 42.422857-17.846857 42.422857-43.446857s-17.481143-43.300571-42.422857-43.300572H489.325714c-24.941714 0-42.422857 17.92-42.422857 43.300572 0 25.6 17.554286 43.446857 42.422857 43.446857z m0 236.397714h363.52c25.088 0 42.422857-17.92 42.422857-43.52 0-25.526857-17.481143-43.373714-42.422857-43.373714H489.325714c-24.941714 0-42.422857 17.92-42.422857 43.446857 0 25.6 17.554286 43.373714 42.422857 43.373714z" p-id="7885"></path></svg>