<?xml version="1.0" standalone="no"?><!DOCTYPE svg PUBLIC "-//W3C//DTD SVG 1.1//EN" "http://www.w3.org/Graphics/SVG/1.1/DTD/svg11.dtd"><svg t="1596871066257" class="icon" viewBox="0 0 1024 1024" version="1.1" xmlns="http://www.w3.org/2000/svg" p-id="2493" xmlns:xlink="http://www.w3.org/1999/xlink" width="16" height="16"><defs><style type="text/css"></style></defs><path d="M396.997 246.372c1.5-7.438 1.5-15.377 3.75-22.44h307.54c5.064 15.627 8.439 32.129 8.439 49.444 0 89.637-72.572 162.146-162.021 162.146-72.01 0-132.705-47.256-153.833-112.265 17.565-23.565 15.315-55.382-3.875-76.885zM290.734 961.09h78.76l-2.626-87.51-76.134 87.51z m532.193-356.92c11.752 23.877 30.755 208.213 44.882 356.92H756.794L733.73 722.684l-7.438 238.406H383.12l-7.376-238.406s-1.625-31.567-7.376-60.07l-278.037-3.312c-18.19-0.25-34.817-10.877-42.442-27.379-8.189-16.44-5.564-36.13 5.938-50.256l16.69-20.628c1.313-3.376 3.438-6.501 5.689-9.377l239.156-295.038c16.314-20.628 46.568-23.69 66.883-7.064 20.503 16.502 23.69 46.444 7.064 66.946v0.312L227.726 517.533l174.022-24.253c0.376-0.063 0.875 0.187 1.25 0.062 35.13-12.939 79.385-19.878 136.143-19.878h31.192c151.144 0 212.777 49.444 252.594 130.705z m-95.574-85.887c-18.19-9.751-39.568-17.627-65.321-22.816L402.935 958.902h78.01l246.408-440.619z m-46.444-456.06H428.127L400.748 198.93h307.54L680.91 62.223z m187.837 372.174l-5.375-5.313 77.197-77.448 5.688 5.25 34.505-34.942-18.565-18.502-34.941 34.88 2.375 2.437-77.073 77.385-16.377-16.19-25.44-25.44-12.44 12.315 25.879 25.628-73.447 73.447-12.188-4.5-7 6.813c21.064 10.376 39.441 23.878 55.631 40.192l81.571-96.012z" fill="#13227a" p-id="2494"></path></svg>