<?xml version="1.0" standalone="no"?><!DOCTYPE svg PUBLIC "-//W3C//DTD SVG 1.1//EN" "http://www.w3.org/Graphics/SVG/1.1/DTD/svg11.dtd"><svg t="1596871267020" class="icon" viewBox="0 0 1024 1024" version="1.1" xmlns="http://www.w3.org/2000/svg" p-id="5878" xmlns:xlink="http://www.w3.org/1999/xlink" width="16" height="16"><defs><style type="text/css"></style></defs><path d="M790.755556 654.222222c5.688889 8.533333 5.688889 14.222222 5.688888 22.755556 0 5.688889-2.844444 14.222222-5.688888 17.066666-2.844444 5.688889-11.377778 8.533333-17.066667 11.377778-8.533333 2.844444-17.066667 5.688889-25.6 5.688889H275.911111c-11.377778 0-19.911111-2.844444-25.6-5.688889-5.688889-2.844444-11.377778-8.533333-14.222222-14.222222-2.844444-5.688889-5.688889-11.377778-2.844445-19.911111 0-8.533333 2.844444-14.222222 5.688889-22.755556 5.688889-11.377778 11.377778-19.911111 17.066667-31.288889 5.688889-11.377778 14.222222-22.755556 19.911111-34.133333l19.911111-36.977778c5.688889-11.377778 14.222222-22.755556 19.911111-34.133333 14.222222-25.6 31.288889-51.2 45.511111-76.8l76.8 139.377778 150.755556-261.688889c28.444444 45.511111 54.044444 88.177778 76.8 130.844444 11.377778 17.066667 22.755556 36.977778 34.133333 56.888889 11.377778 19.911111 22.755556 36.977778 34.133334 56.888889 11.377778 19.911111 22.755556 36.977778 31.288889 54.044445l25.6 42.666666z" p-id="5879" fill="#098724"></path></svg>