<?xml version="1.0" standalone="no"?><!DOCTYPE svg PUBLIC "-//W3C//DTD SVG 1.1//EN" "http://www.w3.org/Graphics/SVG/1.1/DTD/svg11.dtd"><svg t="1596871349647" class="icon" viewBox="0 0 1024 1024" version="1.1" xmlns="http://www.w3.org/2000/svg" p-id="6966" xmlns:xlink="http://www.w3.org/1999/xlink" width="16" height="16"><defs><style type="text/css"></style></defs><path d="M768 806.656a113.11104 113.11104 0 0 1 5.82656-165.90848 185.8048 185.8048 0 0 0 8.98048-273.42848l-14.4384-14.20288a113.11104 113.11104 0 0 1 4.9664-165.89824L918.016 61.36832H807.07584l-81.55136 70.99392a185.92768 185.92768 0 0 0-8.13056 272.82432l14.4384 14.19264a112.98816 112.98816 0 0 1-5.45792 166.26688 185.8048 185.8048 0 0 0-9.59488 272.82432L821.52448 962.3552h103.03488l-156.5696-155.6992z m-605.5936-84.23424a111.89248 111.89248 0 0 1 39.18848-81.67424 185.8048 185.8048 0 0 0 8.98048-273.42848l-14.4384-14.20288a113.11104 113.11104 0 0 1 4.97664-165.89824l144.66048-125.8496H234.8544l-81.5616 70.99392a185.92768 185.92768 0 0 0-8.13056 272.82432l14.4384 14.19264a112.98816 112.98816 0 0 1-5.45792 166.26688 185.8048 185.8048 0 0 0-9.58464 272.82432L249.2928 962.3552h103.03488l-156.672-155.3408a111.89248 111.89248 0 0 1-33.25952-84.5824z" p-id="6967" fill="#1296db"></path><path d="M313.856 505.91744a184.1152 184.1152 0 0 1-3.15392 27.42272l308.6336-308.6336a186.29632 186.29632 0 0 1 57.3952-92.34432l81.5616-71.00416h-61.9008L307.3024 450.93888c4.92544 17.88928 7.13728 36.42368 6.5536 54.97856zM474.66496 61.2352h-81.67424l-36.41344 31.19104L216.1664 232.8576a113.23392 113.23392 0 0 0 1.9456 83.8656L474.66496 61.2352zM258.27328 367.3088a184.95488 184.95488 0 0 1 28.28288 36.41344l342.1184-341.99552h-85.8112L247.35744 356.27008l10.92608 11.04896z m356.44416-69.89824L213.37088 698.75712a114.93376 114.93376 0 0 0-3.2768 23.66464 112.13824 112.13824 0 0 0 12.1344 53.89312l413.4912-414.34112a186.53184 186.53184 0 0 1-20.8896-64.5632h-0.11264z m0.9728 461.17888L412.03712 962.2528h85.8112l141.2608-141.27104a186.65472 186.65472 0 0 1-23.296-62.38208h-0.12288z m130.58048 177.5616l-25.6 26.09152h52.4288l-26.8288-26.10176z m-63.34464-516.89472l-14.4384-14.4384c-1.2288-1.20832-2.31424-2.54976-3.52256-3.75808L251.5968 814.41792l43.08992 42.72128 409.47712-409.47712a113.59232 113.59232 0 0 0-21.23776-28.40576zM566.1696 962.2528h85.8112l60.672-60.68224-43.07968-42.72128L566.1696 962.24256z m-194.18112-28.16l244.91008-244.91008A186.29632 186.29632 0 0 1 677.5808 585.5232a111.77984 111.77984 0 0 0 39.19872-81.92L329.03168 891.36128l42.9568 42.72128z" p-id="6968" fill="#1296db"></path></svg>