<?xml version="1.0" standalone="no"?><!DOCTYPE svg PUBLIC "-//W3C//DTD SVG 1.1//EN" "http://www.w3.org/Graphics/SVG/1.1/DTD/svg11.dtd"><svg t="1596871230613" class="icon" viewBox="0 0 1024 1024" version="1.1" xmlns="http://www.w3.org/2000/svg" p-id="5601" xmlns:xlink="http://www.w3.org/1999/xlink" width="16" height="16"><defs><style type="text/css"></style></defs><path d="M952.888889 482.607407l14.222222 18.962963V568.888889l-18.014815 20.859259h-54.044444v9.481482h-12.325926c0-55.940741-35.081481-96.711111-102.4-88.177778v-29.392593h-25.6V328.059259l11.377778-20.859259h161.185185c19.911111 36.977778 30.340741 74.903704 36.977778 112.82963H783.17037v5.688889h182.044445l0.948148 37.925925-9.481482 19.911112h-3.792592v-0.948149z m-833.422222-4.74074h573.629629c54.992593-49.303704 52.148148-236.088889 0-273.066667h-41.718518l-5.688889-18.014815H548.977778l-5.688889 18.014815H433.303704v237.985185h-10.42963v-24.651852h-70.162963v24.651852H341.333333V204.8h-56.888889l-5.688888-18.014815H182.992593l-5.688889 18.014815h-57.837037c-54.992593 47.407407-48.355556 236.088889 0 273.066667z m303.407407-273.066667v17.066667h-70.162963v-17.066667h70.162963z m0 201.007407h-70.162963v-24.651851h70.162963v24.651851z m0-134.637037v24.651852h-70.162963v-24.651852h70.162963z m-71.111111-12.325926v-24.651851h70.162963v24.651851h-70.162963z m71.111111 48.355556V331.851852h-70.162963v-24.651852h70.162963z m0 36.977778v24.651852h-70.162963v-24.651852h70.162963z m-291.081481 189.629629h-25.6v55.940741h18.962963c0 4.740741-0.948148 9.481481 0 15.170371h6.637037l6.637037 0.948148c1.896296-18.014815 5.688889-34.133333 11.377777-48.355556 5.688889-15.17037 12.325926-27.496296 18.962963-37.925926h105.244445c5.688889 11.377778 11.377778 24.651852 15.17037 37.925926 4.740741 15.17037 7.585185 30.340741 9.481482 47.407408l10.429629-0.948149 10.42963 0.948149c1.896296-18.014815 5.688889-34.133333 11.377778-48.355556 5.688889-15.17037 12.325926-27.496296 18.962963-37.925926H455.111111c5.688889 11.377778 11.377778 24.651852 15.17037 37.925926 4.740741 15.17037 7.585185 30.340741 9.481482 47.407407l12.325926-0.948148c0-2.844444-0.948148-5.688889-0.948148-8.533333v-5.688889h212.385185v15.17037h13.274074c-1.896296-45.511111 14.222222-78.696296 57.837037-91.97037v-12.325926c-8.533333 1.896296-16.118519 4.740741-23.703704 8.533333v-11.377777c-17.066667 0-32.237037-0.948148-49.303703-0.948149v36.977778h-55.940741l-13.274074-36.977778H134.637037v37.925926h-2.844444z m673.185185-201.955555v62.577778l128 17.066666c-1.896296-25.6-7.585185-50.251852-18.962963-73.007407v27.496296c0 2.844444-1.896296 4.740741-4.740741 4.740741h-16.118518c-2.844444 0-4.740741-1.896296-4.740741-4.740741V331.851852h-83.437037z m99.555555 234.192592v7.585186h38.874074v-7.585186h-38.874074z m-9.481481-29.392592v7.585185h49.303704v-7.585185h-49.303704z m-18.962963-28.444445v7.585186h67.318518v-7.585186h-67.318518z m-658.962963 18.014815c19.911111 0 38.874074 8.533333 52.148148 21.807408 13.274074 13.274074 21.807407 31.288889 21.807407 52.148148 0 19.911111-8.533333 38.874074-21.807407 52.148148C256 664.651852 237.037037 673.185185 217.125926 673.185185s-38.874074-8.533333-52.148148-21.807407c-13.274074-13.274074-21.807407-31.288889-21.807408-52.148148 0-19.911111 8.533333-38.874074 21.807408-52.148149 13.274074-12.325926 31.288889-20.859259 52.148148-20.859259z m-23.703704 70.162963c1.896296 0 3.792593 1.896296 3.792593 3.792593s-1.896296 3.792593-3.792593 3.792592-3.792593-1.896296-3.792592-3.792592 1.896296-3.792593 3.792592-3.792593z m4.740741 17.066667c-0.948148 0.948148-0.948148 3.792593 0 4.740741 1.896296 1.896296 3.792593 1.896296 4.740741 0 0.948148-0.948148 0.948148-3.792593 0-4.740741-0.948148-0.948148-3.792593-0.948148-4.740741 0z m15.17037 9.481481c0 1.896296 1.896296 3.792593 3.792593 3.792593s3.792593-1.896296 3.792593-3.792593-1.896296-3.792593-3.792593-3.792592-3.792593 1.896296-3.792593 3.792592z m18.014815-3.792592c0.948148 1.896296 3.792593 1.896296 4.740741 0 0.948148-0.948148 0.948148-3.792593 0-4.740741-0.948148-1.896296-3.792593-1.896296-4.740741 0-1.896296 0.948148-1.896296 2.844444 0 4.740741z m9.481482-16.118519c-1.896296 0-3.792593-1.896296-3.792593-3.792592s1.896296-3.792593 3.792593-3.792593 3.792593 1.896296 3.792592 3.792593c-0.948148 2.844444-1.896296 3.792593-3.792592 3.792592z m-4.740741-17.066666c-1.896296 1.896296-3.792593 1.896296-4.740741 0-0.948148-0.948148-0.948148-3.792593 0-4.740741 1.896296-0.948148 3.792593-0.948148 4.740741 0 0.948148 0.948148 0.948148 2.844444 0 4.740741z m-15.17037-9.481482c0 1.896296-1.896296 3.792593-3.792593 3.792593s-3.792593-1.896296-3.792593-3.792593 1.896296-3.792593 3.792593-3.792593 3.792593 1.896296 3.792593 3.792593z m-18.014815 3.792593c0.948148 0.948148 0.948148 3.792593 0 4.74074-1.896296 1.896296-3.792593 1.896296-4.740741 0-0.948148-0.948148-0.948148-3.792593 0-4.74074 0.948148-0.948148 3.792593-0.948148 4.740741 0z m35.081481-1.896297c5.688889 5.688889 8.533333 13.274074 8.533334 21.807408 0 8.533333-3.792593 16.118519-8.533334 21.807407-5.688889 5.688889-13.274074 8.533333-21.807407 8.533334-8.533333 0-16.118519-3.792593-21.807408-8.533334-5.688889-5.688889-8.533333-13.274074-8.533333-21.807407 0-8.533333 3.792593-16.118519 8.533333-21.807408 5.688889-5.688889 13.274074-8.533333 21.807408-8.533333 9.481481 0 17.066667 2.844444 21.807407 8.533333z m159.288889-52.148148c19.911111 0 38.874074 8.533333 52.148148 21.807408 13.274074 13.274074 21.807407 31.288889 21.807408 52.148148 0 19.911111-8.533333 38.874074-21.807408 52.148148-14.222222 12.325926-32.237037 20.859259-52.148148 20.859259s-38.874074-8.533333-52.148148-21.807407c-13.274074-13.274074-21.807407-31.288889-21.807407-52.148148 0-19.911111 8.533333-38.874074 21.807407-52.148149 13.274074-12.325926 31.288889-20.859259 52.148148-20.859259z m-23.703704 70.162963c1.896296 0 3.792593 1.896296 3.792593 3.792593s-1.896296 3.792593-3.792593 3.792592-3.792593-1.896296-3.792592-3.792592 1.896296-3.792593 3.792592-3.792593z m3.792593 17.066667c-0.948148 0.948148-0.948148 3.792593 0 4.740741 1.896296 1.896296 3.792593 1.896296 4.740741 0 0.948148-0.948148 0.948148-3.792593 0-4.740741-0.948148-0.948148-2.844444-0.948148-4.740741 0z m16.118518 9.481481c0 1.896296 1.896296 3.792593 3.792593 3.792593s3.792593-1.896296 3.792593-3.792593-1.896296-3.792593-3.792593-3.792592-3.792593 1.896296-3.792593 3.792592z m17.066667-3.792592c0.948148 1.896296 3.792593 1.896296 4.740741 0 0.948148-0.948148 0.948148-3.792593 0-4.740741-1.896296-1.896296-3.792593-1.896296-4.740741 0-0.948148 0.948148-0.948148 2.844444 0 4.740741z m9.481482-16.118519c-1.896296 0-3.792593-1.896296-3.792593-3.792592s1.896296-3.792593 3.792593-3.792593 3.792593 1.896296 3.792592 3.792593c0 2.844444-1.896296 3.792593-3.792592 3.792592z m-3.792593-17.066666c-1.896296 1.896296-3.792593 1.896296-4.740741 0-1.896296-0.948148-1.896296-3.792593 0-4.740741 0.948148-0.948148 3.792593-0.948148 4.740741 0 0.948148 0.948148 0.948148 2.844444 0 4.740741z m-16.118518-9.481482c0 1.896296-1.896296 3.792593-3.792593 3.792593s-3.792593-1.896296-3.792593-3.792593 1.896296-3.792593 3.792593-3.792593c2.844444 0 3.792593 1.896296 3.792593 3.792593z m-17.066667 3.792593c0.948148 0.948148 0.948148 3.792593 0 4.74074-1.896296 1.896296-3.792593 1.896296-4.740741 0-1.896296-0.948148-1.896296-3.792593 0-4.74074 0.948148-0.948148 2.844444-0.948148 4.740741 0z m35.081481-1.896297c5.688889 5.688889 8.533333 13.274074 8.533334 21.807408 0 8.533333-3.792593 16.118519-8.533334 21.807407-5.688889 5.688889-13.274074 8.533333-21.807407 8.533334-8.533333 0-16.118519-3.792593-21.807407-8.533334-5.688889-5.688889-8.533333-13.274074-8.533334-21.807407 0-8.533333 3.792593-16.118519 8.533334-21.807408 5.688889-5.688889 13.274074-8.533333 21.807407-8.533333 8.533333 0 16.118519 2.844444 21.807407 8.533333z m380.207408-52.148148c-19.911111 0-38.874074 8.533333-52.148148 21.807408-13.274074 13.274074-21.807407 31.288889-21.807408 52.148148 0 19.911111 8.533333 38.874074 21.807408 52.148148 13.274074 13.274074 31.288889 21.807407 52.148148 21.807407 19.911111 0 38.874074-8.533333 52.148148-21.807407 13.274074-13.274074 21.807407-31.288889 21.807407-52.148148 0-19.911111-8.533333-38.874074-21.807407-52.148148-14.222222-13.274074-32.237037-21.807407-52.148148-21.807408z m-23.703704 70.162963c-1.896296 0-3.792593 1.896296-3.792593 3.792593s1.896296 3.792593 3.792593 3.792592 3.792593-1.896296 3.792593-3.792592-1.896296-3.792593-3.792593-3.792593z m3.792593 17.066667c0.948148-0.948148 3.792593-0.948148 4.74074 0 0.948148 0.948148 0.948148 3.792593 0 4.740741-0.948148 1.896296-3.792593 1.896296-4.74074 0-0.948148-0.948148-0.948148-2.844444 0-4.740741z m16.118518 9.481481c0-1.896296 1.896296-3.792593 3.792593-3.792592s3.792593 1.896296 3.792592 3.792592-1.896296 3.792593-3.792592 3.792593-3.792593-1.896296-3.792593-3.792593z m17.066667-3.792592c-0.948148-0.948148-0.948148-3.792593 0-4.740741 0.948148-1.896296 3.792593-1.896296 4.740741 0 0.948148 0.948148 0.948148 3.792593 0 4.740741-0.948148 0.948148-2.844444 0.948148-4.740741 0z m9.481481-16.118519c1.896296 0 3.792593-1.896296 3.792593-3.792592s-1.896296-3.792593-3.792593-3.792593-3.792593 1.896296-3.792592 3.792593c0 2.844444 1.896296 3.792593 3.792592 3.792592z m-3.792592-17.066666c0.948148-0.948148 0.948148-3.792593 0-4.740741-0.948148-0.948148-3.792593-0.948148-4.740741 0-0.948148 0.948148-0.948148 3.792593 0 4.740741 0.948148 0.948148 2.844444 0.948148 4.740741 0z m-16.118519-9.481482c0-1.896296-1.896296-3.792593-3.792592-3.792593s-3.792593 1.896296-3.792593 3.792593 1.896296 3.792593 3.792593 3.792593c2.844444 0 3.792593-1.896296 3.792592-3.792593z m-17.066666 3.792593c-0.948148-1.896296-3.792593-1.896296-4.740741 0-0.948148 0.948148-0.948148 3.792593 0 4.74074 0.948148 1.896296 3.792593 1.896296 4.740741 0 0.948148-0.948148 0.948148-2.844444 0-4.74074z m35.081481-1.896297c-5.688889-5.688889-13.274074-8.533333-21.807407-8.533333s-16.118519 3.792593-21.807408 8.533333c-5.688889 5.688889-8.533333 13.274074-8.533333 21.807408 0 8.533333 3.792593 16.118519 8.533333 21.807407 5.688889 5.688889 13.274074 8.533333 21.807408 8.533334s16.118519-3.792593 21.807407-8.533334c5.688889-5.688889 8.533333-13.274074 8.533333-21.807407 0-8.533333-2.844444-16.118519-8.533333-21.807408z" fill="#d81e06" p-id="5602"></path></svg>