<?xml version="1.0" standalone="no"?><!DOCTYPE svg PUBLIC "-//W3C//DTD SVG 1.1//EN" "http://www.w3.org/Graphics/SVG/1.1/DTD/svg11.dtd"><svg t="1596871421875" class="icon" viewBox="0 0 1024 1024" version="1.1" xmlns="http://www.w3.org/2000/svg" p-id="8795" xmlns:xlink="http://www.w3.org/1999/xlink" width="16" height="16"><defs><style type="text/css"></style></defs><path d="M839.446 839.453V621.146h109.152L875.83 439.232h36.399L803.08 148.158l-72.783 254.683h36.384l-87.617 175.171-57.917-175.171 36.384 36.39L511.998 2.625l-109.149 363.83h36.383l-72.767 218.307-72.524-152.215 36.14 6.684-109.148-291.074-72.768 254.683h36.369L75.383 621.145h109.151V803.07S41.031 866.207 2.618 912.221c60.689-27.678 123.863-21.389 218.315-36.384-28.458 17.268-54.764 20.359-72.768 36.384-39.838 35.39-109.149 109.156-109.149 109.156h436.599s-149.701-68.932-145.534-109.156c2.454-23.769 49.734-55.493 72.768-72.768 22.486-1.175 49.52 0.395 72.768 0v72.768h72.767v-72.768c183.173 6.114 371.09 26.261 472.995 72.768-33.792-40.468-181.932-72.768-181.932-72.768z m-363.829-72.767c-72.345 1.636-156.55 24.807-218.301 36.383V621.144h72.767l-36.382 36.39h181.916v109.151z m291.066 36.383c-61.811-13.933-143.821-32.974-218.299-36.383V657.535h181.914l-36.382-36.39h72.767V803.07z" p-id="8796" fill="#098724"></path></svg>