<?xml version="1.0" standalone="no"?><!DOCTYPE svg PUBLIC "-//W3C//DTD SVG 1.1//EN" "http://www.w3.org/Graphics/SVG/1.1/DTD/svg11.dtd"><svg t="1596871170916" class="icon" viewBox="0 0 1024 1024" version="1.1" xmlns="http://www.w3.org/2000/svg" p-id="3976" xmlns:xlink="http://www.w3.org/1999/xlink" width="16" height="16"><defs><style type="text/css"></style></defs><path d="M873.28 344.32l-206.4 32 8.64-58.56a48 48 0 0 0-38.4-54.08l-121.6-23.68a48 48 0 0 0-25.6 1.92L352 291.2H176.64v4.48h-23.36v-5.44H99.2l-5.44 3.2v16.32l4.16 3.2h55.36v-4.48h23.68v4.48h146.88l30.08 3.2 30.08 64-149.76 20.48a48 48 0 0 0-14.4 4.48l-121.92 58.56a48 48 0 0 0-24.64 58.56l42.56 126.4a48 48 0 0 0 33.92 32l42.24 9.28a93.44 93.44 0 0 0 187.2 0h58.56a93.44 93.44 0 1 0 187.2 0l32 2.24a93.44 93.44 0 1 0 187.2 0h23.36a47.68 47.68 0 0 0 20.8-4.8l23.36-11.52v-69.76a48 48 0 0 1 2.88-16l37.12-105.6a48 48 0 0 0 0-32l-24.64-76.8a48 48 0 0 0-53.76-31.36zM284.16 724.48a34.88 34.88 0 0 1 0-69.44 34.88 34.88 0 0 1 0 69.44z m245.76-4.48a34.88 34.88 0 0 1-34.56-34.88 34.56 34.56 0 1 1 34.56 34.88z m219.2 0a34.88 34.88 0 0 1-34.56-34.88 34.56 34.56 0 1 1 68.8 0 34.88 34.88 0 0 1-34.56 34.88z m0 0" p-id="3977" fill="#d81e06"></path></svg>